<svg width="18" height="18" viewBox="0 0 18 18" fill="none" xmlns="http://www.w3.org/2000/svg">
<g clip-path="url(#clip0_2499_54168)">
<path d="M17.8244 9.20719C17.8244 8.59539 17.7748 7.98029 17.669 7.37842H9.17993V10.8442H14.0412C13.8395 11.9619 13.1913 12.9507 12.2422 13.579V15.8278H15.1425C16.8456 14.2603 17.8244 11.9454 17.8244 9.20719Z" fill="#4285F4"/>
<path d="M9.18008 18.0005C11.6074 18.0005 13.6544 17.2035 15.1459 15.8278L12.2457 13.579C11.4388 14.128 10.3971 14.4389 9.18338 14.4389C6.83541 14.4389 4.8446 12.8548 4.13029 10.7251H1.13745V13.0433C2.66529 16.0824 5.77717 18.0005 9.18008 18.0005Z" fill="#34A853"/>
<path d="M4.12684 10.7255C3.74984 9.60776 3.74984 8.3974 4.12684 7.27963V4.96143H1.13731C-0.139194 7.50451 -0.139194 10.5006 1.13731 13.0437L4.12684 10.7255Z" fill="#FBBC04"/>
<path d="M9.18007 3.56224C10.4632 3.5424 11.7033 4.02523 12.6326 4.9115L15.2021 2.34196C13.5751 0.814129 11.4156 -0.0258495 9.18007 0.000606499C5.77717 0.000606499 2.66528 1.91867 1.13745 4.96111L4.12698 7.27931C4.83798 5.1463 6.83211 3.56224 9.18007 3.56224Z" fill="#EA4335"/>
</g>
<defs>
<clipPath id="clip0_2499_54168">
<rect width="18" height="18" fill="white"/>
</clipPath>
</defs>
</svg>
